<?xml version="1.0" encoding="UTF-8"?>
<svg id="Layer_1" data-name="Layer 1" xmlns="http://www.w3.org/2000/svg" viewBox="0 0 129.63 154.63">
  <defs>
    <style>
      .cls-1 {
        fill: #a22e66;
        stroke-width: 0px;
      }
    </style>
  </defs>
  <path class="cls-1" d="m13.23,87.02c2.07,1.64,2.67,3.41,2.91,5.88,1.42,14.54,13.11,27.42,27.27,30.22,1.51.3,3.3,1.19,4.07-1.3,1.21-3.9-.3-6.95-4.25-8.26-9.26-3.07-15.23-9.29-17.67-18.74-2.35-9.13.79-19.28,7.47-23.88.1,1.28.13,2.39.28,3.47,1.75,12.75,8.7,21.67,20.15,27.26,3.33,1.63,5.23,1.58,6.03-2.98,2.23-12.85,9.64-21.72,22.06-26.04,14.1-4.9,22.39-14.52,24.09-29.43.44-3.89,1.85-3.49,4.39-1.87,8.61,5.48,12.78,17.02,9.56,26.72-3.24,9.74-11.83,15.92-23.24,16.69-22.86,1.55-36.09,15.69-36.16,38.66-.02,6.49.02,12.99-.04,19.48-.01,1.61.46,3.38-.98,4.71-1.49,1.58-3.43.99-5.19.99-15.13.04-30.27.01-45.4.03-1.49,0-3.01,0-4.45.32-1.52.35-1.88,1.71-1.88,3.14,0,1.61.79,2.46,2.42,2.49.83.01,1.66.04,2.49.04,38.25,0,76.5,0,114.76,0,.5,0,1-.01,1.5,0,1.97.04,3.63-.13,3.71-2.8.08-2.87-1.56-3.21-3.82-3.21-13.3.03-26.61.12-39.91-.05-3.73-.05-7.62,1.12-11.21-.9-2.74-.21-2.9-2.05-2.88-4.24.08-7.83-.09-15.66.09-23.48.25-10.86,5.59-18.49,15.22-23.33,5.08-2.55,10.7-2.21,16.04-3.33,3.47-.73,3.83.51,2.87,3.29-3.08,8.97-8.75,15.33-18.32,17.25-5.13,1.03-3.18,4.77-3.12,7.46.08,3.91,3.14,1.96,4.87,1.63,13.71-2.62,25.08-15.33,26.37-29.66.26-2.94,1.27-4.79,3.62-6.55,19.36-14.53,16.01-45.31-6.2-55.33-4.58-2.06-7.12-4.79-9.4-9.15C93.24,6.72,79.92-.94,62.55.09c-16.19.97-28.37,9.02-34.96,24.23-1.32,3.05-2.92,4.65-5.98,5.86C-3.11,39.95-7.6,70.51,13.23,87.02Zm-3.45-31.12c2.36-9.8,8.69-16.09,18.57-17.94,3.74-.7,5.08-1.99,5.97-5.57,4.24-16.94,21.79-26.81,38.93-22.22,16.87,4.52,27.03,21.3,22.42,37.23-2.28,7.89-7.36,13.44-15.19,15.91-12.46,3.93-21.66,11.35-26.79,23.5-.85,2.01-1.53,3.16-3.87,1.3-8.12-6.48-10.17-20.57-3.99-28.46,1.73-2.21,3.06-3.24,5.94-.83,8.01,6.71,17.89,6.61,25.56.32,7.83-6.41,10.05-16.32,5.64-25.14-4.12-8.23-13.84-12.91-22.59-10.89-9.58,2.22-16.48,10.73-16.05,20.73.3,6.88-5.09,10.71-8.98,13.16-8.42,5.29-14.92,11.43-18.32,21.48-6.83-6.66-9.33-13.99-7.27-22.58Zm43.82-12.31c-.21-6.19,4.88-11.57,11.07-11.71,5.93-.13,11.17,4.94,11.28,10.92.12,6.33-4.89,11.66-11.04,11.75-5.97.09-11.1-4.89-11.31-10.96Z"/>
</svg>